<?xml version="1.0" ?><svg data-name="Filled Outline" id="Filled_Outline" viewBox="0 0 128 128" xmlns="http://www.w3.org/2000/svg"><title/><rect height="34.175" rx="3.913" ry="3.913" style="fill:#4a4263" transform="translate(-47.772 110.112) rotate(-45)" width="7.827" x="105.118" y="95.634"/><path d="M118.348,127.448a5.4,5.4,0,0,1-3.829-1.583l-18.63-18.631a5.413,5.413,0,0,1,7.655-7.656l18.631,18.632a5.411,5.411,0,0,1-3.827,9.238ZM99.717,100.994a2.413,2.413,0,0,0-1.707,4.119l18.631,18.631a2.413,2.413,0,0,0,3.413-3.413L101.423,101.7A2.409,2.409,0,0,0,99.717,100.994Z" style="fill:#332c44"/><polygon points="41.292 75.81 41.293 75.81 41.294 75.81 41.292 75.81" style="fill:#ff5581"/><path d="M37.823,72.34c.046-1.612,1.713-3.982,2.724-5.282a.945.945,0,0,1,1.491,0c1.011,1.3,2.679,3.67,2.725,5.282a3.47,3.47,0,0,1-6.94,0Z" style="fill:#ff5581"/><path d="M88.524,25.776,63.638,50.662l-4.39,4.39a2.981,2.981,0,0,1-4.22-.15l-5.92-5.91a3,3,0,0,1-.15-4.22L78.45,15.28Z" style="fill:#3abaae"/><path d="M42.506,63.012a1.5,1.5,0,0,1-1.061-2.561l9.565-9.564a1.5,1.5,0,0,1,2.121,2.121l-9.565,9.564A1.494,1.494,0,0,1,42.506,63.012Z" style="fill:#332c44"/><path d="M63.638,50.662l-4.39,4.39a2.981,2.981,0,0,1-4.22-.15l-5.92-5.91a3,3,0,0,1-.15-4.22l4.4-4.4Z" style="fill:#ffe3de"/><path d="M30.678,59.882v53.732a10.065,10.065,0,0,1-9.173,10.156A9.841,9.841,0,0,1,11,113.952V59.882h19.68Z" style="fill:#ffc0bb"/><path d="M30.678,67.992v45.96a9.84,9.84,0,0,1-19.68,0V67.992Z" style="fill:#ff5581"/><path d="M18.811,76.809H11a1.5,1.5,0,1,1,0-3h7.812a1.5,1.5,0,1,1,0,3Z" style="fill:#332c44"/><path d="M15.391,84.13H11a1.5,1.5,0,1,1,0-3h4.392a1.5,1.5,0,0,1,0,3Z" style="fill:#332c44"/><path d="M18.811,91.451H11a1.5,1.5,0,1,1,0-3h7.812a1.5,1.5,0,1,1,0,3Z" style="fill:#332c44"/><path d="M15.391,98.772H11a1.5,1.5,0,1,1,0-3h4.392a1.5,1.5,0,0,1,0,3Z" style="fill:#332c44"/><path d="M15.391,113.414H11a1.5,1.5,0,1,1,0-3h4.392a1.5,1.5,0,0,1,0,3Z" style="fill:#332c44"/><path d="M18.811,106.093H11a1.5,1.5,0,1,1,0-3h7.812a1.5,1.5,0,0,1,0,3Z" style="fill:#332c44"/><circle cx="81.418" cy="85.108" r="27.878" style="fill:#2c80db"/><circle cx="81.418" cy="85.108" r="21.965" style="fill:#fff"/><circle cx="80.649" cy="86.204" r="0.75" style="fill:#276b82"/><rect height="6.115" style="fill:#ffc0bb" transform="translate(16.236 67.657) rotate(-45)" width="10.279" x="84.648" y="11.173"/><rect height="21.82" rx="2.812" ry="2.812" style="fill:#ffe3de" transform="translate(11.546 65.715) rotate(-45)" width="5.624" x="82.286" y="8.009"/><rect height="15.286" rx="2.812" ry="2.812" style="fill:#ffe3de" transform="translate(21.438 69.812) rotate(-45)" width="5.624" x="92.177" y="1.386"/><polygon points="41.292 75.81 41.293 75.81 41.294 75.81 41.292 75.81" style="fill:none"/><path d="M41.293,77.31a5.048,5.048,0,0,1-3.6-1.519A4.781,4.781,0,0,1,36.324,72.3c.044-1.551,1.067-3.623,3.04-6.159a2.443,2.443,0,0,1,3.859,0c1.972,2.535,3,4.607,3.039,6.159a4.785,4.785,0,0,1-1.371,3.494A5.048,5.048,0,0,1,41.293,77.31Zm0-8.751c-1.418,1.926-1.953,3.226-1.971,3.823h0a1.812,1.812,0,0,0,.525,1.318,2.088,2.088,0,0,0,2.892,0,1.813,1.813,0,0,0,.525-1.318C43.246,71.785,42.711,70.485,41.293,68.559Zm-3.47,3.78h0Z" style="fill:#332c44"/><path d="M98.405,16.756a4.287,4.287,0,0,1-3.049-1.262h0L88.524,8.661a4.312,4.312,0,1,1,6.1-6.1L101.454,9.4a4.312,4.312,0,0,1-3.049,7.36Zm-.928-3.383a1.312,1.312,0,1,0,1.856-1.856L92.5,4.685a1.344,1.344,0,0,0-1.856,0,1.312,1.312,0,0,0,0,1.855Z" style="fill:#332c44"/><path d="M89.248,20.593h0a1.5,1.5,0,0,1-1.061-.439L83.864,15.83a1.5,1.5,0,0,1,0-2.121l5.914-5.915a1.5,1.5,0,0,1,2.121,0l4.325,4.324a1.5,1.5,0,0,1,0,2.121l-5.915,5.915A1.5,1.5,0,0,1,89.248,20.593Zm-2.2-5.823,2.2,2.2,3.794-3.793-2.2-2.2Z" style="fill:#332c44"/><path d="M93.873,21.6,82.421,10.144a4.312,4.312,0,0,0-7.361,3.049,4.266,4.266,0,0,0,.832,2.525L47.9,43.709A4.248,4.248,0,0,0,46.664,46.9a4.681,4.681,0,0,0,1.387,3.148l5.918,5.918a4.678,4.678,0,0,0,3.306,1.387,4.26,4.26,0,0,0,3.034-1.237L88.3,28.126A4.305,4.305,0,0,0,93.873,21.6ZM58.187,54a1.5,1.5,0,0,1-2.1-.149l-5.918-5.918a1.692,1.692,0,0,1-.51-1.133,1.275,1.275,0,0,1,.36-.964L53.357,42.5l8.165,8.164Zm5.456-5.456-8.165-8.165L77.967,17.886l8.165,8.165ZM91.752,25.574a1.344,1.344,0,0,1-1.856,0h0L78.444,14.12a1.312,1.312,0,0,1,0-1.855,1.315,1.315,0,0,1,1.856,0L91.752,23.719a1.31,1.31,0,0,1,0,1.855Z" style="fill:#332c44"/><path d="M29.783,58.386H11.89A2.393,2.393,0,0,0,9.5,60.776v53.178a11.338,11.338,0,0,0,22.675,0V60.776A2.393,2.393,0,0,0,29.783,58.386Zm-.609,3v5.1H12.5v-5.1Zm-8.337,60.9a8.347,8.347,0,0,1-8.338-8.337V69.487H29.174v44.467A8.346,8.346,0,0,1,20.837,122.291Z" style="fill:#332c44"/><path d="M81.418,114.472A29.371,29.371,0,1,1,102.19,64.335h0a29.364,29.364,0,0,1-20.772,50.137Zm0-55.742a26.38,26.38,0,1,0,18.652,7.726h0A26.205,26.205,0,0,0,81.417,58.73Z" style="fill:#332c44"/><path d="M81.418,108.572A23.465,23.465,0,1,1,98.01,68.516h0a23.465,23.465,0,0,1-16.592,40.056Zm0-43.929a20.465,20.465,0,1,0,14.471,5.994A20.331,20.331,0,0,0,81.418,64.643Z" style="fill:#332c44"/><rect height="8.896" rx="4.448" ry="4.448" style="fill:#ffe3de" width="29.898" x="5.888" y="51.477"/><path d="M31.338,61.873h-21a5.948,5.948,0,0,1,0-11.895h21a5.948,5.948,0,0,1,0,11.895Zm-21-8.895a2.948,2.948,0,0,0,0,5.895h21a2.948,2.948,0,0,0,0-5.895Z" style="fill:#332c44"/><path d="M73.146,33.591l.449-.449a1.083,1.083,0,0,0,0-1.531l-1.187-1.187a1.084,1.084,0,0,0-1.531,0l-.448.449-.451-.45a1.109,1.109,0,0,0-1.531,0l-1.188,1.188a1.08,1.08,0,0,0,0,1.531l.45.45-.447.448a1.078,1.078,0,0,0,0,1.532l1.186,1.187a1.083,1.083,0,0,0,1.531,0l.449-.448.449.449a1.085,1.085,0,0,0,1.53,0L73.6,35.571a1.083,1.083,0,0,0,0-1.531Z" style="fill:#332c44"/><path d="M94.987,80.857a2.856,2.856,0,0,0-2.421-1.478c-.055,0-.111,0-.165.007a2.691,2.691,0,0,0-2.023,1.163l-1.245.16-.053,0a.388.388,0,0,1-.334-.181,7.993,7.993,0,0,0-.722-1.009,8.17,8.17,0,0,0-2.037-1.74.4.4,0,0,1-.176-.393l.177-1.22a2.471,2.471,0,0,0-1.287-4.5c-.046,0-.092,0-.137,0a2.438,2.438,0,0,0-2.125,1.241,2.464,2.464,0,0,0-.095,2.275l-.466,1.15a.391.391,0,0,1-.345.25,8.185,8.185,0,0,0-3.373.8.338.338,0,0,1-.151.034.412.412,0,0,1-.277-.112l-.423-.394a3,3,0,1,0-5.668,1.207,3.01,3.01,0,0,0,2.314,1.612l.485.741a.436.436,0,0,1,0,.449,8.31,8.31,0,0,0-.989,3.7.4.4,0,0,1-.254.337l-1.3.568a2.506,2.506,0,0,0-3.2,3.508,2.471,2.471,0,0,0,2.167,1.291l.107,0a2.5,2.5,0,0,0,2.018-1.142l1.261-.217a.4.4,0,0,1,.07-.006.393.393,0,0,1,.335.184,8.116,8.116,0,0,0,2.743,2.745.388.388,0,0,1,.174.385l-.162,1.25a2.6,2.6,0,0,0,1.4,4.733l.08,0a2.737,2.737,0,0,0,2.37-1.527,2.614,2.614,0,0,0-.046-2.243l.437-1.13a.384.384,0,0,1,.326-.257,8.207,8.207,0,0,0,2.851-.609.461.461,0,0,1,.173-.035.332.332,0,0,1,.232.087l1.385,1.3A2.733,2.733,0,0,0,87.588,96a2.8,2.8,0,0,0,1.785.6,2.594,2.594,0,0,0,1.216-.284,2.719,2.719,0,0,0-.871-5.1L88.7,89.666a.389.389,0,0,1-.017-.414,8.262,8.262,0,0,0,1.264-4.02.393.393,0,0,1,.256-.342l1.163-.449a2.681,2.681,0,0,0,3.623-3.584Z" style="fill:#3abaae"/><path d="M96.781,79.972a4.847,4.847,0,0,0-4.215-2.593q-.16,0-.318.012a4.709,4.709,0,0,0-2.563,1c-.043-.053-.086-.106-.13-.158a10.186,10.186,0,0,0-1.421-1.388,4.468,4.468,0,0,0-3.324-7.173c-.082-.005-.164-.007-.246-.007a4.441,4.441,0,0,0-3.869,2.261,4.522,4.522,0,0,0-.544,2.77,9.912,9.912,0,0,0-1.171.25,5,5,0,1,0-9.112,4.092A5.025,5.025,0,0,0,72.1,81.234a10.387,10.387,0,0,0-.548,2.125,4.512,4.512,0,0,0-1.962.139,4.505,4.505,0,0,0,1.267,8.821c.064,0,.128,0,.192,0A4.558,4.558,0,0,0,73.728,91.3l.118.143a10.176,10.176,0,0,0,1.416,1.384,4.6,4.6,0,0,0,3.463,7.423l.158,0a4.72,4.72,0,0,0,4.2-2.71,4.629,4.629,0,0,0,.352-2.589,10.262,10.262,0,0,0,1.16-.269l.1.092A4.744,4.744,0,0,0,86.3,97.531a4.829,4.829,0,0,0,3.074,1.074,4.6,4.6,0,0,0,2.156-.518,4.722,4.722,0,0,0-.557-8.6l-.072-.111a10.271,10.271,0,0,0,.89-2.708,4.682,4.682,0,0,0,4.991-6.7ZM93,83.686a1.677,1.677,0,0,1-1.292-.2.613.613,0,0,0-.318-.091.577.577,0,0,0-.208.039l-1.345.52a1.392,1.392,0,0,0-.895,1.226,7.245,7.245,0,0,1-1.11,3.534,1.385,1.385,0,0,0,.026,1.5l1.122,1.713a.611.611,0,0,0,.47.271,1.719,1.719,0,0,1,.665,3.24,1.618,1.618,0,0,1-.746.166,1.825,1.825,0,0,1-1.141-.369,1.72,1.72,0,0,1-.613-1.5.6.6,0,0,0-.187-.5L85.91,91.807a1.33,1.33,0,0,0-.916-.357,1.465,1.465,0,0,0-.552.11,7.251,7.251,0,0,1-2.5.535,1.382,1.382,0,0,0-1.227.895L80.2,94.314a.559.559,0,0,0,.046.5,1.6,1.6,0,0,1,.095,1.507,1.756,1.756,0,0,1-1.457.935h-.041a1.6,1.6,0,0,1-.755-2.984.568.568,0,0,0,.283-.417l.187-1.455a1.391,1.391,0,0,0-.646-1.368,7.193,7.193,0,0,1-1.768-1.515,7.053,7.053,0,0,1-.639-.893,1.394,1.394,0,0,0-1.43-.645l-1.479.254a.522.522,0,0,0-.377.276,1.514,1.514,0,0,1-1.3.815h-.064a1.46,1.46,0,0,1-1.289-.77A1.505,1.505,0,0,1,71.622,86.5a.525.525,0,0,0,.465.022l1.507-.656a1.4,1.4,0,0,0,.853-1.226,7.267,7.267,0,0,1,.87-3.25,1.434,1.434,0,0,0-.04-1.472l-.564-.863a.714.714,0,0,0-.549-.315,2.007,2.007,0,0,1-1.636-1.091,2,2,0,1,1,3.776-.7.706.706,0,0,0,.217.592l.528.494a1.411,1.411,0,0,0,.96.381,1.335,1.335,0,0,0,.581-.131,7.239,7.239,0,0,1,2.963-.7,1.388,1.388,0,0,0,1.252-.875l.551-1.36a.514.514,0,0,0-.035-.455,1.476,1.476,0,0,1-.01-1.5,1.424,1.424,0,0,1,1.253-.731l.082,0a1.471,1.471,0,0,1,.651,2.754.517.517,0,0,0-.266.379l-.209,1.444a1.391,1.391,0,0,0,.648,1.392,7.181,7.181,0,0,1,1.789,1.528,7.07,7.07,0,0,1,.632.883,1.395,1.395,0,0,0,1.37.651l1.438-.184a.6.6,0,0,0,.439-.3,1.682,1.682,0,0,1,1.339-.833.87.87,0,0,1,.089,0,1.853,1.853,0,0,1,1.524.92A1.682,1.682,0,0,1,93,83.686Z" style="fill:#332c44"/><circle cx="85.77" cy="85.184" r="1.303" style="fill:#332c44"/><circle cx="82.178" cy="89.658" r="1.054" style="fill:#332c44"/><circle cx="77.552" cy="84.034" r="0.922" style="fill:#332c44"/><circle cx="81.782" cy="80.646" r="0.732" style="fill:#332c44"/><circle cx="80.649" cy="86.204" r="0.75" style="fill:#332c44"/><path d="M65.9,102.141a1.5,1.5,0,0,1-1.06-2.56L95.891,68.53a1.5,1.5,0,1,1,2.121,2.121L66.961,101.7A1.5,1.5,0,0,1,65.9,102.141Z" style="fill:#332c44"/><path d="M65.9,102.141a1.5,1.5,0,0,1-1.06-2.56L95.891,68.53a1.5,1.5,0,1,1,2.121,2.121L66.961,101.7A1.5,1.5,0,0,1,65.9,102.141Z" style="fill:#332c44"/></svg>